<svg width="383" height="316" viewBox="0 0 383 316" fill="none" xmlns="http://www.w3.org/2000/svg">
<g clip-path="url(#clip0_21_18)">
<rect x="46.768" y="22.714" width="93.912" height="338.454" rx="46.956" transform="rotate(-24.1646 46.768 22.714)" fill="url(#paint0_linear_21_18)"/>
<rect x="110.06" y="164.469" width="93.912" height="183.032" rx="46.956" transform="rotate(-24.1646 110.06 164.469)" fill="url(#paint1_linear_21_18)"/>
<circle cx="55.0599" cy="261.025" r="55" fill="url(#paint2_linear_21_18)"/>
<circle cx="55.0599" cy="274.025" r="42" fill="url(#paint3_linear_21_18)"/>
<circle cx="334.06" cy="47" r="47" fill="url(#paint4_linear_21_18)"/>
<circle cx="334.06" cy="58.109" r="35.8909" fill="url(#paint5_linear_21_18)"/>
<rect x="287" y="105" width="94" height="211" rx="47" fill="url(#paint6_linear_21_18)"/>
<rect x="287" y="198" width="94" height="118" rx="47" fill="url(#paint7_linear_21_18)"/>
</g>
<defs>
<linearGradient id="paint0_linear_21_18" x1="100.957" y1="-4.55911" x2="-238.485" y2="987.28" gradientUnits="userSpaceOnUse">
<stop offset="0.0056" stop-color="#081838"/>
<stop offset="1" stop-color="#1F56FF"/>
</linearGradient>
<linearGradient id="paint1_linear_21_18" x1="181.729" y1="23.3803" x2="136.836" y2="401.967" gradientUnits="userSpaceOnUse">
<stop offset="0.0056" stop-color="#091E46"/>
<stop offset="1" stop-color="#075FF3"/>
</linearGradient>
<linearGradient id="paint2_linear_21_18" x1="63.5314" y1="197.161" x2="29.6406" y2="554.054" gradientUnits="userSpaceOnUse">
<stop offset="0.0056" stop-color="#081838"/>
<stop offset="1" stop-color="#1F56FF"/>
</linearGradient>
<linearGradient id="paint3_linear_21_18" x1="77.1648" y1="167.275" x2="66.4846" y2="342.815" gradientUnits="userSpaceOnUse">
<stop offset="0.0056" stop-color="#091E46"/>
<stop offset="1" stop-color="#075FF3"/>
</linearGradient>
<linearGradient id="paint4_linear_21_18" x1="341.299" y1="-7.57465" x2="312.338" y2="297.406" gradientUnits="userSpaceOnUse">
<stop offset="0.0056" stop-color="#091A3C"/>
<stop offset="1" stop-color="#1F56FF"/>
</linearGradient>
<linearGradient id="paint5_linear_21_18" x1="352.95" y1="-33.1142" x2="343.823" y2="116.893" gradientUnits="userSpaceOnUse">
<stop offset="0.0056" stop-color="#091E46"/>
<stop offset="1" stop-color="#075FF3"/>
</linearGradient>
<linearGradient id="paint6_linear_21_18" x1="341.239" y1="87.9973" x2="200.398" y2="748.734" gradientUnits="userSpaceOnUse">
<stop offset="0.0056" stop-color="#081838"/>
<stop offset="1" stop-color="#1F56FF"/>
</linearGradient>
<linearGradient id="paint7_linear_21_18" x1="358.736" y1="107.041" x2="339.943" y2="353.11" gradientUnits="userSpaceOnUse">
<stop offset="0.0056" stop-color="#091E46"/>
<stop offset="1" stop-color="#075FF3"/>
</linearGradient>
<clipPath id="clip0_21_18">
<rect width="383" height="316" fill="white"/>
</clipPath>
</defs>
</svg>
